<svg width="243" height="36" viewBox="0 0 243 36" fill="none" xmlns="http://www.w3.org/2000/svg">
<path d="M12.344 35.576C9.88 35.576 7.736 35.128 5.912 34.232C4.088 33.336 2.68 32.088 1.688 30.488C0.696 28.888 0.2 27.032 0.2 24.92H4.424C4.424 26.232 4.712 27.448 5.288 28.568C5.864 29.656 6.744 30.536 7.928 31.208C9.112 31.848 10.6 32.168 12.392 32.168C13.832 32.168 15.096 31.96 16.184 31.544C17.272 31.128 18.12 30.504 18.728 29.672C19.368 28.84 19.688 27.8 19.688 26.552C19.688 25.304 19.4 24.28 18.824 23.48C18.28 22.648 17.528 21.96 16.568 21.416C15.608 20.872 14.536 20.408 13.352 20.024C12.2 19.608 11.016 19.192 9.8 18.776C6.888 17.752 4.744 16.52 3.368 15.08C2.024 13.608 1.352 11.8 1.352 9.656C1.352 7.96 1.768 6.456 2.6 5.144C3.464 3.8 4.68 2.744 6.248 1.976C7.848 1.208 9.736 0.823999 11.912 0.823999C14.056 0.823999 15.912 1.224 17.48 2.024C19.08 2.824 20.328 3.928 21.224 5.336C22.12 6.712 22.568 8.312 22.568 10.136H18.344C18.344 8.952 18.088 7.912 17.576 7.016C17.064 6.12 16.312 5.416 15.32 4.904C14.328 4.36 13.08 4.088 11.576 4.088C10.392 4.088 9.32 4.264 8.36 4.616C7.432 4.968 6.696 5.528 6.152 6.296C5.64 7.064 5.384 8.056 5.384 9.272C5.384 10.296 5.592 11.144 6.008 11.816C6.424 12.488 7.032 13.08 7.832 13.592C8.664 14.072 9.672 14.552 10.856 15.032C12.072 15.48 13.464 15.992 15.032 16.568C16.664 17.144 18.12 17.832 19.4 18.632C20.712 19.4 21.736 20.376 22.472 21.56C23.24 22.744 23.624 24.248 23.624 26.072C23.624 27.704 23.208 29.256 22.376 30.728C21.544 32.168 20.296 33.336 18.632 34.232C16.968 35.128 14.872 35.576 12.344 35.576ZM26.9881 35V1.4H31.0201V15.176H31.2121C32.1721 13.672 33.3401 12.536 34.7161 11.768C36.1241 11 37.6281 10.616 39.2281 10.616C41.0521 10.616 42.6521 11 44.0281 11.768C45.4041 12.504 46.4601 13.656 47.1961 15.224C47.9641 16.76 48.3481 18.712 48.3481 21.08V35H44.3641V21.512C44.3641 19.048 43.8521 17.192 42.8281 15.944C41.8361 14.696 40.3481 14.072 38.3641 14.072C36.9881 14.072 35.7401 14.408 34.6201 15.08C33.5001 15.752 32.6201 16.728 31.9801 18.008C31.3401 19.256 31.0201 20.808 31.0201 22.664V35H26.9881ZM60.0309 35.576C58.1429 35.576 56.5589 35.24 55.2789 34.568C53.9989 33.896 53.0389 33 52.3989 31.88C51.7909 30.76 51.4869 29.544 51.4869 28.232C51.4869 26.6 51.9029 25.224 52.7349 24.104C53.5989 22.984 54.7989 22.136 56.3349 21.56C57.9029 20.952 59.7429 20.648 61.8549 20.648H68.2869C68.2869 19.08 68.0469 17.784 67.5669 16.76C67.0869 15.736 66.3989 14.984 65.5029 14.504C64.6069 13.992 63.5349 13.736 62.2869 13.736C60.7189 13.736 59.3589 14.136 58.2069 14.936C57.0549 15.736 56.3509 16.968 56.0949 18.632H51.9669C52.1589 16.904 52.7189 15.448 53.6469 14.264C54.6069 13.08 55.8229 12.184 57.2949 11.576C58.7989 10.936 60.4629 10.616 62.2869 10.616C64.5589 10.616 66.4309 11.032 67.9029 11.864C69.4069 12.664 70.5109 13.8 71.2149 15.272C71.9509 16.712 72.3189 18.408 72.3189 20.36V35H68.9589L68.5749 30.92H68.3829C67.9349 31.688 67.4069 32.36 66.7989 32.936C66.2229 33.512 65.5829 33.992 64.8789 34.376C64.1749 34.76 63.4069 35.048 62.5749 35.24C61.7749 35.464 60.9269 35.576 60.0309 35.576ZM60.7509 32.168C61.9669 32.168 63.0389 31.944 63.9669 31.496C64.8949 31.016 65.6789 30.376 66.3189 29.576C66.9589 28.776 67.4389 27.88 67.7589 26.888C68.1109 25.864 68.2869 24.824 68.2869 23.768H62.1909C60.6229 23.768 59.3589 23.96 58.3989 24.344C57.4389 24.696 56.7509 25.192 56.3349 25.832C55.9189 26.472 55.7109 27.208 55.7109 28.04C55.7109 28.872 55.9029 29.608 56.2869 30.248C56.7029 30.856 57.2789 31.336 58.0149 31.688C58.7829 32.008 59.6949 32.168 60.7509 32.168ZM86.432 35.576C84.128 35.576 82.128 35.032 80.432 33.944C78.768 32.824 77.472 31.32 76.544 29.432C75.648 27.544 75.2 25.432 75.2 23.096C75.2 20.76 75.648 18.648 76.544 16.76C77.472 14.872 78.816 13.384 80.576 12.296C82.336 11.176 84.464 10.616 86.96 10.616C89.168 10.616 90.976 11.08 92.384 12.008C93.824 12.936 94.928 13.976 95.696 15.128V1.4H99.728V35H96.368L95.984 30.44H95.792C95.12 31.592 94.288 32.552 93.296 33.32C92.336 34.056 91.28 34.616 90.128 35C88.976 35.384 87.744 35.576 86.432 35.576ZM87.392 32.072C89.056 32.072 90.496 31.704 91.712 30.968C92.96 30.2 93.92 29.144 94.592 27.8C95.264 26.456 95.6 24.888 95.6 23.096C95.6 21.304 95.264 19.736 94.592 18.392C93.92 17.048 92.96 16.008 91.712 15.272C90.496 14.504 89.056 14.12 87.392 14.12C85.728 14.12 84.288 14.504 83.072 15.272C81.856 16.008 80.912 17.048 80.24 18.392C79.6 19.736 79.28 21.304 79.28 23.096C79.28 24.888 79.6 26.456 80.24 27.8C80.912 29.144 81.856 30.2 83.072 30.968C84.288 31.704 85.728 32.072 87.392 32.072ZM114.803 35.576C112.531 35.576 110.515 35.064 108.755 34.04C106.995 32.984 105.603 31.528 104.579 29.672C103.587 27.784 103.091 25.592 103.091 23.096C103.091 20.568 103.587 18.376 104.579 16.52C105.571 14.664 106.947 13.224 108.707 12.2C110.499 11.144 112.563 10.616 114.899 10.616C117.235 10.616 119.235 11.144 120.899 12.2C122.563 13.224 123.843 14.584 124.739 16.28C125.635 17.944 126.083 19.768 126.083 21.752C126.083 22.072 126.083 22.424 126.083 22.808C126.083 23.16 126.067 23.56 126.035 24.008H106.115V20.888H122.099C122.003 18.616 121.267 16.856 119.891 15.608C118.547 14.36 116.851 13.736 114.803 13.736C113.427 13.736 112.147 14.04 110.963 14.648C109.779 15.256 108.819 16.168 108.083 17.384C107.379 18.6 107.027 20.136 107.027 21.992V23.336C107.027 25.32 107.395 26.968 108.131 28.28C108.867 29.592 109.827 30.584 111.011 31.256C112.227 31.896 113.491 32.216 114.803 32.216C116.467 32.216 117.859 31.832 118.979 31.064C120.099 30.296 120.915 29.24 121.427 27.896H125.411C124.995 29.368 124.307 30.68 123.347 31.832C122.387 32.984 121.187 33.896 119.747 34.568C118.339 35.24 116.691 35.576 114.803 35.576ZM129.223 35V1.4H140.071C142.695 1.4 144.839 1.848 146.503 2.744C148.167 3.608 149.399 4.776 150.199 6.248C150.999 7.72 151.399 9.384 151.399 11.24C151.399 13.032 150.983 14.68 150.151 16.184C149.351 17.688 148.103 18.888 146.407 19.784C144.711 20.68 142.535 21.128 139.879 21.128H133.255V35H129.223ZM146.983 35L139.591 19.976H144.103L151.734 35H146.983ZM133.255 17.96H139.783C142.343 17.96 144.215 17.336 145.399 16.088C146.615 14.84 147.223 13.24 147.223 11.288C147.223 9.304 146.631 7.736 145.447 6.584C144.295 5.4 142.391 4.808 139.734 4.808H133.255V17.96ZM165.525 35.576C163.285 35.576 161.269 35.064 159.477 34.04C157.685 33.016 156.261 31.576 155.205 29.72C154.181 27.832 153.669 25.624 153.669 23.096C153.669 20.568 154.197 18.376 155.253 16.52C156.309 14.632 157.733 13.176 159.525 12.152C161.349 11.128 163.381 10.616 165.621 10.616C167.861 10.616 169.877 11.128 171.669 12.152C173.461 13.176 174.869 14.632 175.893 16.52C176.949 18.376 177.477 20.568 177.477 23.096C177.477 25.624 176.949 27.832 175.893 29.72C174.837 31.576 173.397 33.016 171.573 34.04C169.781 35.064 167.765 35.576 165.525 35.576ZM165.525 32.456C166.901 32.456 168.181 32.12 169.365 31.448C170.549 30.744 171.509 29.704 172.245 28.328C172.981 26.952 173.349 25.208 173.349 23.096C173.349 20.984 172.981 19.24 172.245 17.864C171.541 16.456 170.597 15.416 169.413 14.744C168.229 14.072 166.965 13.736 165.621 13.736C164.277 13.736 162.997 14.072 161.781 14.744C160.597 15.416 159.637 16.456 158.901 17.864C158.165 19.24 157.797 20.984 157.797 23.096C157.797 25.208 158.165 26.952 158.901 28.328C159.637 29.704 160.581 30.744 161.733 31.448C162.917 32.12 164.181 32.456 165.525 32.456ZM189.472 35.576C187.648 35.576 186.048 35.208 184.672 34.472C183.328 33.704 182.272 32.552 181.504 31.016C180.736 29.448 180.352 27.48 180.352 25.112V11.192H184.384V24.68C184.384 27.144 184.912 29 185.968 30.248C187.024 31.496 188.544 32.12 190.528 32.12C191.904 32.12 193.12 31.784 194.176 31.112C195.264 30.44 196.112 29.464 196.72 28.184C197.36 26.904 197.68 25.352 197.68 23.528V11.192H201.712V35H198.16L197.776 31.256H197.584C196.784 32.536 195.696 33.576 194.32 34.376C192.976 35.176 191.36 35.576 189.472 35.576ZM214.985 35C213.545 35 212.297 34.776 211.241 34.328C210.185 33.88 209.369 33.128 208.793 32.072C208.249 30.984 207.977 29.528 207.977 27.704V14.072H203.849V11.192H207.977L208.457 5.48H212.009V11.192H219.017V14.072H212.009V27.704C212.009 29.368 212.313 30.488 212.921 31.064C213.529 31.608 214.601 31.88 216.137 31.88H218.633V35H214.985ZM231.521 35.576C229.249 35.576 227.233 35.064 225.473 34.04C223.713 32.984 222.321 31.528 221.297 29.672C220.305 27.784 219.809 25.592 219.809 23.096C219.809 20.568 220.305 18.376 221.297 16.52C222.289 14.664 223.665 13.224 225.425 12.2C227.217 11.144 229.281 10.616 231.617 10.616C233.953 10.616 235.953 11.144 237.617 12.2C239.281 13.224 240.561 14.584 241.457 16.28C242.353 17.944 242.801 19.768 242.801 21.752C242.801 22.072 242.801 22.424 242.801 22.808C242.801 23.16 242.785 23.56 242.753 24.008H222.833V20.888H238.817C238.721 18.616 237.985 16.856 236.609 15.608C235.265 14.36 233.569 13.736 231.521 13.736C230.145 13.736 228.865 14.04 227.681 14.648C226.497 15.256 225.537 16.168 224.801 17.384C224.097 18.6 223.745 20.136 223.745 21.992V23.336C223.745 25.32 224.113 26.968 224.849 28.28C225.585 29.592 226.545 30.584 227.729 31.256C228.945 31.896 230.209 32.216 231.521 32.216C233.185 32.216 234.577 31.832 235.697 31.064C236.817 30.296 237.633 29.24 238.145 27.896H242.129C241.713 29.368 241.025 30.68 240.065 31.832C239.105 32.984 237.905 33.896 236.465 34.568C235.057 35.24 233.409 35.576 231.521 35.576Z" fill="white"/>
</svg>
